<svg xmlns="http://www.w3.org/2000/svg" class="h-8 md:h-12" viewBox="0 0 300 299.76">
    <g id="Grupo_9" data-name="Grupo 9" transform="translate(-890.944 -2356.688)">
        <ellipse id="path8301" cx="150" cy="149.88" rx="150" ry="149.88"
            transform="translate(890.944 2356.688)" fill="#0096ff" />
        <path id="path6819"
            d="M-398.963,1036.08l-6.005,50.34s31.989,5.81,42.278,16.972c10.206,11.072,7.673,31.441,17.139,43.151,8.747,10.821,32.62,20.426,32.62,20.426s-5.142,37.354-17.259,48.174-29.777,8.373-43.542,12.135-26.679,5.011-36.041,13.98c-6.221,5.959-10.248,15.58-8.575,23.865,3.2,15.856,24.932,30.477,32.849,35.741-110.088,36.831-177.016-60.33-174-64.176,7.811-23.007,22.53-81.993,45.092-117.291,11.632-18.2,29.523-34.383,45.133-46.507,21.453-16.663,70.308-36.811,70.308-36.811Z"
            transform="translate(1473.67 1346.108)" fill="#54428e" />
    </g>
</svg>